<?xml version="1.0" encoding="UTF-8" standalone="no"?>
<svg
   width="818.15015"
   height="194.25244"
   viewBox="0 0 216.46911 51.396164"
   fill="#005aff"
   version="1.1"
   id="svg1"
   xmlns="http://www.w3.org/2000/svg"
   xmlns:svg="http://www.w3.org/2000/svg">
  <defs
     id="defs1" />
  <path
     style="stroke-width:0.999999"
     d="M -3.3636744e-4,0 V 51.307843 H 7.6065562 V 17.400559 L 47.135171,51.329372 V 40.691676 Z"
     id="path10" />
  <path
     style="stroke-width:0.999999"
     d="m 134.88637,0 -27.66173,25.615844 27.66173,25.669806 h 11.09125 L 118.27406,25.615844 145.97762,0 Z"
     id="path8" />
  <path
     style="stroke-width:0.999999"
     d="m 155.4625,0 v 51.28565 h 7.45349 V 0 Z"
     id="path7" />
  <path
     d="M 75.810736,0 C 61.290902,0 50.024333,10.567969 50.024333,25.698082 c 0,15.811446 11.265905,25.698746 25.786403,25.698082 C 90.331235,51.3955 101.62038,41.508864 101.59714,25.698082 101.57589,11.362858 90.331235,0 75.810736,0 Z m 0,7.074974 c 10.132341,0 18.346191,7.626151 18.346191,18.623108 0,11.200826 -8.21385,18.623771 -18.346191,18.623771 -10.132341,0 -18.346191,-7.42361 -18.346191,-18.623771 0,-10.997621 8.21385,-18.623108 18.346191,-18.623108 z"
     style="stroke-width:0.999999"
     id="path1-5" />
  <path
     style="stroke-width:0.999999"
     d="m 216.46942,0 v 51.307843 h -7.60689 V 17.400559 L 169.33391,51.329372 V 40.691676 Z"
     id="path10-9" />
</svg>
